<svg xmlns="http://www.w3.org/2000/svg" xmlns:xlink="http://www.w3.org/1999/xlink" width="3.79cm" height="3.59cm" viewBox="0 0 107.51 101.66"><defs><style>.cls-1{fill:#fff;}.cls-2{clip-path:url(#clip-path);}.cls-3{fill:#b9b5b2;}</style><clipPath id="clip-path"><rect class="cls-1" width="107.51" height="101.66"/></clipPath></defs><title>insta</title><g id="Layer_1" data-name="Layer 1"><rect class="cls-1" width="107.51" height="101.66"/><g class="cls-2"><path class="cls-3" d="M107.18,29.87a35.79,35.79,0,0,0-2.49-12.34,25.05,25.05,0,0,0-6.2-9A26.64,26.64,0,0,0,89,2.67a41.06,41.06,0,0,0-13-2.36C70.18.06,68.35,0,53.75,0S37.32.06,31.59.31a41.19,41.19,0,0,0-13,2.36A26.69,26.69,0,0,0,9,8.53a24.92,24.92,0,0,0-6.2,9A35.53,35.53,0,0,0,.32,29.87C.06,35.3,0,37,0,50.83s.06,15.54.32,21a35.53,35.53,0,0,0,2.5,12.34,24.84,24.84,0,0,0,6.2,9A26.55,26.55,0,0,0,18.54,99a41.44,41.44,0,0,0,13.05,2.37c5.73.24,7.57.3,22.16.3s16.43-.06,22.17-.3A41.31,41.31,0,0,0,89,99a26.5,26.5,0,0,0,9.53-5.86,25,25,0,0,0,6.2-9,35.79,35.79,0,0,0,2.49-12.34c.27-5.42.33-7.15.33-21S107.45,35.3,107.18,29.87Zm-9.67,41.5a27,27,0,0,1-1.85,9.44,15.69,15.69,0,0,1-4,5.84,16.86,16.86,0,0,1-6.18,3.81,31.58,31.58,0,0,1-10,1.75c-5.66.24-7.36.29-21.72.29s-16,0-21.72-.29a31.57,31.57,0,0,1-10-1.75,16.86,16.86,0,0,1-6.18-3.81,15.69,15.69,0,0,1-4-5.84A26.71,26.71,0,0,1,10,71.37c-.26-5.36-.31-7-.31-20.54s.05-15.18.31-20.54a26.77,26.77,0,0,1,1.85-9.44,15.78,15.78,0,0,1,4-5.84,16.71,16.71,0,0,1,6.18-3.8A31.19,31.19,0,0,1,32,9.45c5.67-.24,7.37-.29,21.72-.29s16.06.05,21.72.29a31.21,31.21,0,0,1,10,1.76A16.71,16.71,0,0,1,91.64,15a15.78,15.78,0,0,1,4,5.84,27,27,0,0,1,1.85,9.44c.26,5.36.31,7,.31,20.54S97.77,66,97.51,71.37Z"/><path class="cls-3" d="M53.75,24.73c-15.24,0-27.6,11.69-27.6,26.1s12.36,26.1,27.6,26.1,27.61-11.68,27.61-26.1S69,24.73,53.75,24.73Zm0,43c-9.89,0-17.91-7.58-17.91-16.94s8-16.94,17.91-16.94,17.92,7.58,17.92,16.94S63.65,67.77,53.75,67.77Z"/><path class="cls-3" d="M82.45,17.6A6.28,6.28,0,0,0,76,23.7a6.46,6.46,0,0,0,12.9,0A6.28,6.28,0,0,0,82.45,17.6Z"/></g></g></svg>
