<svg id="Layer_1" data-name="Layer 1" xmlns="http://www.w3.org/2000/svg" xmlns:xlink="http://www.w3.org/1999/xlink" width="17.2cm" height="17.2cm" viewBox="0 0 487.57 487.57"><defs><style>.cls-1{fill:#e9e5e2;}.cls-2{fill:#fff;}</style></defs><title>instragraaaam</title><image width="2033" height="2033" transform="translate(-0.11 -0.14) scale(0.24)" xlink:href="instragraaaam1.png"/><path class="cls-1" d="M321.23,99.22H166.35a68.6,68.6,0,0,0-68.6,68.6V322.7a68.6,68.6,0,0,0,68.6,68.6H321.23a68.6,68.6,0,0,0,68.59-68.6V167.82A68.59,68.59,0,0,0,321.23,99.22Zm0,0H166.35a68.6,68.6,0,0,0-68.6,68.6V322.7a68.6,68.6,0,0,0,68.6,68.6H321.23a68.6,68.6,0,0,0,68.59-68.6V167.82A68.59,68.59,0,0,0,321.23,99.22Z"/><path class="cls-2" d="M319.46,65.37H168.12A103.34,103.34,0,0,0,64.78,168.7V320A103.34,103.34,0,0,0,168.12,423.38H319.46A103.34,103.34,0,0,0,422.79,320V168.7A103.33,103.33,0,0,0,319.46,65.37ZM389.82,322.7a68.6,68.6,0,0,1-68.59,68.6H166.35a68.6,68.6,0,0,1-68.6-68.6V167.82a68.6,68.6,0,0,1,68.6-68.6H321.23a68.59,68.59,0,0,1,68.59,68.6Z"/><path class="cls-2" d="M243.79,152.37a92.89,92.89,0,1,0,92.89,92.89A92.89,92.89,0,0,0,243.79,152.37Zm0,153.1A60.22,60.22,0,1,1,304,245.26,60.22,60.22,0,0,1,243.79,305.47Z"/><circle class="cls-2" cx="339.77" cy="148.83" r="21.64"/></svg>
