<svg id="Layer_1" data-name="Layer 1" xmlns="http://www.w3.org/2000/svg" xmlns:xlink="http://www.w3.org/1999/xlink" width="2.19cm" height="2.19cm" viewBox="0 0 61.99 61.99"><defs><style>.cls-1{fill:#e9e5e2;}.cls-2{fill:#fff;}</style></defs><title>insta</title><image width="259" height="260" transform="translate(-0.09 -0.21) scale(0.24)" xlink:href="insta1.png"/><path class="cls-1" d="M40.84,12.62H21.15a8.71,8.71,0,0,0-8.72,8.72V41a8.71,8.71,0,0,0,8.72,8.72H40.84A8.71,8.71,0,0,0,49.56,41V21.34A8.71,8.71,0,0,0,40.84,12.62Zm0,0H21.15a8.71,8.71,0,0,0-8.72,8.72V41a8.71,8.71,0,0,0,8.72,8.72H40.84A8.71,8.71,0,0,0,49.56,41V21.34A8.71,8.71,0,0,0,40.84,12.62Z"/><path class="cls-2" d="M40.62,8.31H21.38A13.14,13.14,0,0,0,8.24,21.45V40.69A13.14,13.14,0,0,0,21.38,53.83H40.62A13.14,13.14,0,0,0,53.76,40.69V21.45A13.14,13.14,0,0,0,40.62,8.31ZM49.56,41a8.71,8.71,0,0,1-8.72,8.72H21.15A8.71,8.71,0,0,1,12.43,41V21.34a8.71,8.71,0,0,1,8.72-8.72H40.84a8.71,8.71,0,0,1,8.72,8.72Z"/><path class="cls-2" d="M31,19.37A11.81,11.81,0,1,0,42.81,31.18,11.81,11.81,0,0,0,31,19.37Zm0,19.47a7.66,7.66,0,1,1,7.65-7.66A7.66,7.66,0,0,1,31,38.84Z"/><circle class="cls-2" cx="43.2" cy="18.92" r="2.75"/></svg>
