<svg id="Layer_1" data-name="Layer 1" xmlns="http://www.w3.org/2000/svg" width="368.0417mm" height="128.5644mm" viewBox="0 0 1043.2678 364.4346"><title>logo-lene</title><path d="M246.3948,189.52h69.333q13.5643,0,23.3623,10.3A36.1876,36.1876,0,0,1,348.636,224.94q0,13.8178-5.7783,23.8643-5.5284,10.05-14.3184,11.5556,11.5518,2.0142,19.3428,12.3086a39.3468,39.3468,0,0,1,7.5361,23.8652,41.77,41.77,0,0,1-11.5557,29.6416q-11.81,12.3122-28.1347,12.31h-69.333Zm67.3232,67.0718q10.2978,0,17.584-9.2945,7.2833-9.2907,7.2852-22.3569a25.1028,25.1028,0,0,0-7.2852-18.0869,23.5694,23.5694,0,0,0-17.584-7.5362H256.4426v57.2745Zm0,72.3476a30.0831,30.0831,0,0,0,22.3574-9.5459,31.6181,31.6181,0,0,0,9.295-22.8594,28.5894,28.5894,0,0,0-9.295-21.6035,30.9162,30.9162,0,0,0-22.3574-9.0439H256.4426v63.0527Z"/><path d="M396.3625,325.9247,383.552,343.51h-10.3l17.082-23.3623a68.5253,68.5253,0,0,1-14.0674-24.6181,95.5951,95.5951,0,0,1-5.0244-31.4014q0-35.6667,18.0869-57.0234,18.0865-21.3487,48.2315-21.3526a68.0141,68.0141,0,0,1,22.1064,3.5171,56.0031,56.0031,0,0,1,18.5889,10.2993l12.56-16.83h10.2989L484.5364,205.597q9.29,10.3038,14.3183,25.6231a103.5312,103.5312,0,0,1,5.0244,32.9077q0,34.4194-18.0869,55.2656-18.0864,20.8536-48.2314,20.8506Q413.946,340.244,396.3625,325.9247Zm60.0391-127.3614a55.1185,55.1185,0,0,0-18.8408-3.2656q-25.623,0-40.9463,18.84-15.3267,18.8409-15.3242,49.99a89.646,89.646,0,0,0,3.7685,26.3769,66.5238,66.5238,0,0,0,11.3037,21.3526l75.8643-104.2505A44.8974,44.8974,0,0,0,456.4016,198.5633Zm22.1055,114.0479q15.3207-18.0864,15.3242-48.4834a92.8162,92.8162,0,0,0-4.0195-27.8833,62.7683,62.7683,0,0,0-11.3047-22.1065l-76.1153,104a48.1458,48.1458,0,0,0,16.3282,9.5459,55.0127,55.0127,0,0,0,18.8408,3.2656Q463.1838,330.9491,478.5071,312.6112Z"/><path d="M528.4973,189.52h59.0332q23.61,0,40.4443,21.3525,16.5792,21.1019,16.58,51.2466,0,31.6509-16.58,54.0088-16.8324,22.3608-40.4443,22.3574H528.4973Zm59.0332,139.4194q19.3417,0,33.1592-19.5937,13.8135-19.5937,13.8164-47.2266,0-26.124-13.8164-44.4639-13.8179-18.3339-33.1592-18.3379H538.5452V328.9393Z"/><path d="M668.1663,338.4852V189.52h10.0478v82.144l86.918-82.144h12.8115L713.886,251.5677l66.82,86.9175H768.3977L706.35,258.35l-28.1357,25.6231v54.5117Z"/><path d="M798.2883,338.4852V189.52h97.2168v9.7973H808.3362v57.2745H887.969v9.2949H808.3362v63.0527h87.1689v9.5459Z"/><path d="M914.343,338.4852V189.52h71.0918q15.3193,0,26.125,11.5556,10.7975,11.3043,10.8018,27.6329,0,14.3181-6.5313,24.8691-6.7822,10.5506-16.831,12.3091,9.2914,2.5137,15.0722,15.8262,5.7759,13.3184,5.7783,32.1543,0,10.5512.502,15.8261.501,6.2813,2.01,8.792h-10.0479q-2.5151-3.0147-3.2656-11.0527l-.7539-21.3526q0-15.0732-7.2852-25.875-7.0356-10.55-17.333-10.55H924.3909v68.83Zm69.333-78.125q11.8052,0,20.3477-9.0434a30.3049,30.3049,0,0,0,8.29-21.604,30.8752,30.8752,0,0,0-8.29-21.6036,27.4043,27.4043,0,0,0-20.3477-8.792H924.3909V260.36Z"/><path d="M23.9485,24.0008H33.9963V163.42h80.1348v9.5459H23.9485Z"/><path d="M131.2122,172.9662V24.0008H228.429v9.7974H141.26V91.0731h79.6328v9.2944H141.26V163.42h87.169v9.5459Z"/><path d="M247.2668,172.9662V24.0008h13.8164l89.9317,136.6563V24.0008h10.0478V172.9662H347.2473L257.3147,38.32V172.9662Z"/><path d="M393.2151,172.9662V24.0008h97.2168v9.7974h-87.169V91.0731h79.6328v9.2944H403.2629V163.42h87.169v9.5459Z"/><polygon points="650.041 160.097 514.416 160.097 514.416 24.004 650.041 160.097"/><polygon points="99.353 189.523 234.978 189.523 234.978 325.616 99.353 189.523"/></svg>
