<svg id="Layer_1" data-name="Layer 1" xmlns="http://www.w3.org/2000/svg" width="5cm" height="3.54cm" viewBox="0 0 141.79 100.34"><defs><style>.cls-1{fill:#e9e5e2;}.cls-2{fill:#fff;}</style></defs><title>Youtube</title><path class="cls-1" d="M141.68,34.56c-.06-1.68-.14-3.36-.27-5-.55-7.1-1.34-15.24-6-20.93-4-4.86-10.25-6-16.15-6.63C111.74,1.11,104.23.6,96.7.32,81.46-.27,66.21.07,51,.41c-7.83.17-15.66.35-23.47,1C17.91,2.14,8.05,3.55,3.59,13.13-.42,21.73.08,32.64,0,41.89c0,8.3-.08,16.6.26,24.89C.72,77.53,1.36,91.55,13,96.26c6.2,2.52,13.68,3.09,20.3,3.52,7,.45,14.06.4,21.09.5,14.74.22,29.47-.28,44.21-.58,10.23-.2,20.74-.31,30.53-3.66,8.46-2.88,10.66-12,11.8-20s.85-15.91.84-23.86C141.73,46.31,141.88,40.43,141.68,34.56Z"/><path class="cls-2" d="M93.24,50,56.53,28.45V71.58Z"/></svg>
