<?xml version="1.0" encoding="utf-8"?>
<!-- Generator: Adobe Illustrator 23.0.3, SVG Export Plug-In . SVG Version: 6.00 Build 0)  -->
<svg version="1.1" id="Layer_1" xmlns="http://www.w3.org/2000/svg" xmlns:xlink="http://www.w3.org/1999/xlink" x="0px" y="0px"
	 viewBox="0 0 141.7 100.3" style="enable-background:new 0 0 141.7 100.3;" xml:space="preserve">
<style type="text/css">
	.st0{fill:#B9B5B2;}
	.st1{fill:#FFFFFF;}
</style>
<title>Youtube</title>
<path class="st0" d="M141.6,34.6c-0.1-1.7-0.1-3.4-0.3-5c-0.5-7.1-1.3-15.2-6-20.9c-4-4.9-10.2-6-16.1-6.6c-7.5-0.9-15-1.4-22.6-1.7
	C81.4-0.2,66.2,0.1,51,0.4c-7.8,0.2-15.7,0.3-23.5,1C17.9,2.2,8,3.6,3.6,13.1c-4,8.6-3.5,19.5-3.6,28.7c0,8.3-0.1,16.6,0.3,24.9
	C0.7,77.5,1.4,91.5,13,96.2c6.2,2.5,13.7,3.1,20.3,3.5c7,0.4,14.1,0.4,21.1,0.5c14.7,0.2,29.5-0.3,44.2-0.6
	c10.2-0.2,20.7-0.3,30.5-3.7c8.5-2.9,10.7-12,11.8-20c1.1-8,0.8-15.9,0.8-23.9C141.7,46.3,141.8,40.4,141.6,34.6z"/>
<path class="st1" d="M93.2,50L56.5,28.5v43.1L93.2,50z"/>
</svg>
